<svg id="visual" viewBox="0 0 900 150" width="900" height="150" xmlns="http://www.w3.org/2000/svg" xmlns:xlink="http://www.w3.org/1999/xlink" version="1.1"><rect x="0" y="0" width="900" height="150" fill="#080118"></rect><path d="M0 120L21.5 113.2C43 106.3 86 92.7 128.8 88.8C171.7 85 214.3 91 257.2 93.2C300 95.3 343 93.7 385.8 92C428.7 90.3 471.3 88.7 514.2 87.8C557 87 600 87 642.8 91.2C685.7 95.3 728.3 103.7 771.2 106.2C814 108.7 857 105.3 878.5 103.7L900 102L900 0L878.5 0C857 0 814 0 771.2 0C728.3 0 685.7 0 642.8 0C600 0 557 0 514.2 0C471.3 0 428.7 0 385.8 0C343 0 300 0 257.2 0C214.3 0 171.7 0 128.8 0C86 0 43 0 21.5 0L0 0Z" fill="#c62368"></path><path d="M0 92L21.5 92.5C43 93 86 94 128.8 89.3C171.7 84.7 214.3 74.3 257.2 72C300 69.7 343 75.3 385.8 79.2C428.7 83 471.3 85 514.2 86.3C557 87.7 600 88.3 642.8 88.5C685.7 88.7 728.3 88.3 771.2 83.8C814 79.3 857 70.7 878.5 66.3L900 62L900 0L878.5 0C857 0 814 0 771.2 0C728.3 0 685.7 0 642.8 0C600 0 557 0 514.2 0C471.3 0 428.7 0 385.8 0C343 0 300 0 257.2 0C214.3 0 171.7 0 128.8 0C86 0 43 0 21.5 0L0 0Z" fill="#da678b"></path><path d="M0 77L21.5 72.2C43 67.3 86 57.7 128.8 57.7C171.7 57.7 214.3 67.3 257.2 71.3C300 75.3 343 73.7 385.8 68.2C428.7 62.7 471.3 53.3 514.2 53.7C557 54 600 64 642.8 67.5C685.7 71 728.3 68 771.2 65.3C814 62.7 857 60.3 878.5 59.2L900 58L900 0L878.5 0C857 0 814 0 771.2 0C728.3 0 685.7 0 642.8 0C600 0 557 0 514.2 0C471.3 0 428.7 0 385.8 0C343 0 300 0 257.2 0C214.3 0 171.7 0 128.8 0C86 0 43 0 21.5 0L0 0Z" fill="#ea9bb0"></path><path d="M0 31L21.5 35.2C43 39.3 86 47.7 128.8 49.5C171.7 51.3 214.3 46.7 257.2 43.8C300 41 343 40 385.8 40.8C428.7 41.7 471.3 44.3 514.2 45.7C557 47 600 47 642.8 44.7C685.7 42.3 728.3 37.7 771.2 39.5C814 41.3 857 49.7 878.5 53.8L900 58L900 0L878.5 0C857 0 814 0 771.2 0C728.3 0 685.7 0 642.8 0C600 0 557 0 514.2 0C471.3 0 428.7 0 385.8 0C343 0 300 0 257.2 0C214.3 0 171.7 0 128.8 0C86 0 43 0 21.5 0L0 0Z" fill="#f7cdd7"></path><path d="M0 25L21.5 23C43 21 86 17 128.8 14.8C171.7 12.7 214.3 12.3 257.2 15.5C300 18.7 343 25.3 385.8 26.3C428.7 27.3 471.3 22.7 514.2 23C557 23.3 600 28.7 642.8 29.2C685.7 29.7 728.3 25.3 771.2 24.8C814 24.3 857 27.7 878.5 29.3L900 31L900 0L878.5 0C857 0 814 0 771.2 0C728.3 0 685.7 0 642.8 0C600 0 557 0 514.2 0C471.3 0 428.7 0 385.8 0C343 0 300 0 257.2 0C214.3 0 171.7 0 128.8 0C86 0 43 0 21.5 0L0 0Z" fill="#ffffff"></path></svg>